<svg width="96" height="100" viewBox="0 0 96 100" fill="none" xmlns="http://www.w3.org/2000/svg">
<path fill-rule="evenodd" clip-rule="evenodd" d="M95.0518 49.1924C94.1611 63.0466 87.4233 75.3254 76.8312 84.4459C65.5174 94.1879 51.4798 102.392 36.7896 99.3604C21.8535 96.2782 11.5583 83.4401 5.30816 69.6865C-0.707711 56.4484 -1.82227 41.4116 4.50428 28.3156C10.8572 15.1651 23.4044 6.51834 37.6484 2.74228C52.6904 -1.24534 69.7076 -1.91384 81.7567 7.83611C93.6722 17.4779 96.0282 34.0053 95.0518 49.1924Z" fill="#111111"/>
<path d="M68.7019 73.0419H25.7248C24.4609 73.0419 23.4377 72.0188 23.4377 70.7549C23.4377 69.4909 24.4609 68.4678 25.7248 68.4678H68.7019C69.9659 68.4678 70.989 69.4909 70.989 70.7549C70.989 72.0148 69.9659 73.0419 68.7019 73.0419Z" fill="white"/>
<path d="M68.9629 62.4011C66.2666 62.4011 64.8381 61.105 63.7989 60.1581C62.9403 59.3757 62.5952 59.1069 61.7125 59.1069C60.8297 59.1069 60.4887 59.3757 59.626 60.1581C58.5868 61.105 57.1583 62.4011 54.462 62.4011C51.7656 62.4011 50.3372 61.105 49.298 60.1581C48.4393 59.3757 48.0943 59.1069 47.2115 59.1069C46.3288 59.1069 45.9877 59.3757 45.1251 60.1581C44.0859 61.105 42.6574 62.4011 39.9611 62.4011C37.2647 62.4011 35.8363 61.105 34.7971 60.1581C33.9384 59.3757 33.5933 59.1069 32.7106 59.1069C31.8279 59.1069 31.4828 59.3757 30.6241 60.1581C29.5809 61.105 28.1565 62.4011 25.4601 62.4011C24.1962 62.4011 23.1731 61.3779 23.1731 60.114C23.1731 58.8501 24.1962 57.8269 25.4601 57.8269C26.3429 57.8269 26.6879 57.558 27.5466 56.7756C28.5858 55.8287 30.0143 54.5327 32.7106 54.5327C35.407 54.5327 36.8354 55.8287 37.8746 56.7756C38.7333 57.558 39.0783 57.8269 39.9611 57.8269C40.8438 57.8269 41.1849 57.558 42.0475 56.7756C43.0868 55.8287 44.5152 54.5327 47.2115 54.5327C49.9079 54.5327 51.3363 55.8287 52.3755 56.7756C53.2342 57.558 53.5793 57.8269 54.462 57.8269C55.3447 57.8269 55.6858 57.558 56.5485 56.7756C57.5877 55.8287 59.0161 54.5327 61.7125 54.5327C64.4088 54.5327 65.8372 55.8287 66.8765 56.7756C67.7351 57.558 68.0802 57.8269 68.9629 57.8269C70.2268 57.8269 71.25 58.8501 71.25 60.114C71.25 61.3739 70.2268 62.4011 68.9629 62.4011Z" fill="white"/>
<path d="M47.2114 49.6132C40.6992 49.6132 35.4028 44.3168 35.4028 37.8046C35.4068 31.2964 40.7032 26 47.2114 26C53.7236 26 59.02 31.2964 59.02 37.8086C59.02 44.3168 53.7236 49.6132 47.2114 49.6132ZM47.2114 30.5782C43.223 30.5782 39.981 33.8202 39.981 37.8086C39.981 41.7969 43.223 45.039 47.2114 45.039C51.1997 45.039 54.4418 41.7969 54.4418 37.8086C54.4418 33.8202 51.1997 30.5782 47.2114 30.5782Z" fill="white"/>
</svg>
